<?xml version="1.0" encoding="UTF-8"?>
<!DOCTYPE svg PUBLIC "-//W3C//DTD SVG 1.1//EN" "http://www.w3.org/Graphics/SVG/1.1/DTD/svg11.dtd">
<!-- Creator: CorelDRAW -->
<svg xmlns="http://www.w3.org/2000/svg" xml:space="preserve" width="2048px" height="2048px" style="shape-rendering:geometricPrecision; text-rendering:geometricPrecision; image-rendering:optimizeQuality; fill-rule:evenodd; clip-rule:evenodd"
viewBox="0 0 2048 2048"
 xmlns:xlink="http://www.w3.org/1999/xlink">
 <defs>
  <style type="text/css">
   <![CDATA[
    .fil4 {fill:none}
    .fil3 {fill:#6A6A6A}
    .fil2 {fill:#7A7A7A}
    .fil0 {fill:#8C8D8D}
    .fil1 {fill:gray;fill-rule:nonzero}
   ]]>
  </style>
 </defs>
 <g id="Layer_x0020_1">
  <metadata id="CorelCorpID_0Corel-Layer"/>
  <path class="fil0" d="M1694.84 1198.75l-35.967 503.542c-3.20788,44.9197 -36.8847,81.919 -81.9201,81.919l-1105.91 0c-45.0355,0 -78.7123,-36.9768 -81.9201,-81.919l-35.967 -503.542 1341.68 0z"/>
  <polygon class="fil1" points="1057.39,287.999 1057.39,724.081 1190.96,724.081 1022.38,920.437 857.043,724.081 990.608,724.081 990.608,287.999 "/>
  <path class="fil2" d="M317.438 979.141l1413.13 0c33.7914,0 61.4386,28.5496 61.4386,63.443l0 109.971c0,34.8933 -27.6484,63.443 -61.4386,63.443l-1413.13 0c-33.7902,0 -61.4386,-28.5484 -61.4386,-63.443l0 -109.971c0,-34.8945 27.6473,-63.443 61.4386,-63.443z"/>
  <path class="fil3" d="M1286.77 1329.85c0,-18.4417 -14.9504,-33.3922 -33.3922,-33.3922 -18.4417,0 -33.3922,14.9504 -33.3922,33.3922l0 323.253c0,18.4417 14.9504,33.3922 33.3922,33.3922 18.4417,0 33.3922,-14.9504 33.3922,-33.3922l0 -323.253z"/>
  <path class="fil3" d="M1057.39 1329.85c0,-18.4417 -14.9504,-33.3922 -33.3922,-33.3922 -18.4417,0 -33.3922,14.9504 -33.3922,33.3922l0 323.253c0,18.4417 14.9504,33.3922 33.3922,33.3922 18.4417,0 33.3922,-14.9504 33.3922,-33.3922l0 -323.253z"/>
  <path class="fil3" d="M828.014 1329.85c0,-18.4417 -14.9504,-33.3922 -33.3922,-33.3922 -18.4417,0 -33.3922,14.9504 -33.3922,33.3922l0 323.253c0,18.4417 14.9504,33.3922 33.3922,33.3922 18.4417,0 33.3922,-14.9504 33.3922,-33.3922l0 -323.253z"/>
  <path class="fil3" d="M598.635 1329.85c0,-18.4417 -14.9504,-33.3922 -33.3922,-33.3922 -18.4417,0 -33.3922,14.9504 -33.3922,33.3922l0 323.253c0,18.4417 14.9504,33.3922 33.3922,33.3922 18.4417,0 33.3922,-14.9504 33.3922,-33.3922l0 -323.253z"/>
  <path class="fil3" d="M1516.15 1329.85c0,-18.4417 -14.9504,-33.3922 -33.3922,-33.3922 -18.4417,0 -33.3922,14.9504 -33.3922,33.3922l0 323.253c0,18.4417 14.9504,33.3922 33.3922,33.3922 18.4417,0 33.3922,-14.9504 33.3922,-33.3922l0 -323.253z"/>
 </g>
 <rect class="fil4" width="2048" height="2048"/>
</svg>
