<?xml version="1.0" encoding="UTF-8"?>
<!DOCTYPE svg PUBLIC "-//W3C//DTD SVG 1.1//EN" "http://www.w3.org/Graphics/SVG/1.1/DTD/svg11.dtd">
<!-- Creator: CorelDRAW -->
<svg xmlns="http://www.w3.org/2000/svg" xml:space="preserve" width="6.82666in" height="6.82666in" style="shape-rendering:geometricPrecision; text-rendering:geometricPrecision; image-rendering:optimizeQuality; fill-rule:evenodd; clip-rule:evenodd"
viewBox="0 0 6.82666 6.82666"
 xmlns:xlink="http://www.w3.org/1999/xlink">
 <defs>
  <style type="text/css">
   <![CDATA[
    .fil1 {fill:none}
    .fil0 {fill:#212121;fill-rule:nonzero}
   ]]>
  </style>
 </defs>
 <g id="Layer_x0020_1">
  <metadata id="CorelCorpID_0Corel-Layer"/>
  <path class="fil0" d="M1.15626 3.09332l4.51415 0c0.0764173,0 0.147425,0.023437 0.200272,0.061185 0.0633425,0.0452402 0.102657,0.110776 0.102657,0.185673l0 0.243c0,0.0748976 -0.039315,0.140433 -0.102657,0.185673 -0.0528465,0.037748 -0.123862,0.061185 -0.200272,0.061185l-4.51415 0c-0.0764094,0 -0.147421,-0.023437 -0.200276,-0.061185 -0.0633346,-0.0452441 -0.102654,-0.11078 -0.102654,-0.185673l0 -0.243c0,-0.0748937 0.0393189,-0.140429 0.102654,-0.185673 0.0528465,-0.037748 0.123862,-0.061185 0.200276,-0.061185zm4.51415 0.213339l-4.51415 0c-0.0315276,0 -0.0586535,0.00811024 -0.0769449,0.0211772 -0.00779921,0.00557087 -0.0126457,0.0101378 -0.0126457,0.0123425l0 0.243c0,0.00220472 0.00484646,0.00677165 0.0126457,0.0123425 0.0182913,0.013063 0.0454134,0.0211772 0.0769449,0.0211772l4.51415 0c0.0315276,0 0.0586496,-0.00811024 0.0769409,-0.0211772 0.00780315,-0.00557087 0.0126496,-0.0101378 0.0126496,-0.0123425l0 -0.243c0,-0.00220472 -0.00484646,-0.00677165 -0.0126496,-0.0123425 -0.0182913,-0.0130669 -0.0454134,-0.0211772 -0.0769409,-0.0211772z"/>
  <path class="fil0" d="M5.6785 3.73087l-0.130843 1.83183c-0.00707874,0.0992008 -0.0488583,0.189894 -0.11424,0.25528 -0.0652008,0.0651929 -0.153173,0.105579 -0.253701,0.105579l-3.53277 0c-0.100531,0 -0.188516,-0.0403701 -0.253717,-0.105571 -0.065374,-0.065374 -0.107146,-0.156059 -0.114224,-0.255287l-0.130843 -1.83183 0.212504 -0.015 0.130843 1.83183c0.00335827,0.0470551 0.0225748,0.0894724 0.0525551,0.119453 0.0265945,0.0265945 0.0622913,0.0430669 0.102882,0.0430669l3.53277 0c0.0405787,0 0.0762677,-0.0164764 0.102866,-0.0430748 0.0299921,-0.0299921 0.0492165,-0.0724134 0.0525709,-0.119445l0.130843 -1.83183 0.212504 0.015z"/>
  <path class="fil0" d="M2.05453 4.14207c0,-0.0589094 -0.0477598,-0.106669 -0.106669,-0.106669 -0.0589094,0 -0.106669,0.0477598 -0.106669,0.106669l0 1.25611c0,0.0589094 0.0477598,0.106669 0.106669,0.106669 0.0589094,0 0.106669,-0.0477598 0.106669,-0.106669l0 -1.25611z"/>
  <path class="fil0" d="M2.78726 4.14207c0,-0.0589094 -0.0477598,-0.106669 -0.106669,-0.106669 -0.0589094,0 -0.106669,0.0477598 -0.106669,0.106669l0 1.25611c0,0.0589094 0.0477598,0.106669 0.106669,0.106669 0.0589094,0 0.106669,-0.0477598 0.106669,-0.106669l0 -1.25611z"/>
  <path class="fil0" d="M3.52 4.14207c0,-0.0589094 -0.0477598,-0.106669 -0.106669,-0.106669 -0.0589094,0 -0.106669,0.0477598 -0.106669,0.106669l0 1.25611c0,0.0589094 0.0477598,0.106669 0.106669,0.106669 0.0589094,0 0.106669,-0.0477598 0.106669,-0.106669l0 -1.25611z"/>
  <path class="fil0" d="M4.25274 4.14207c0,-0.0589094 -0.0477598,-0.106669 -0.106669,-0.106669 -0.0589094,0 -0.106669,0.0477598 -0.106669,0.106669l0 1.25611c0,0.0589094 0.0477598,0.106669 0.106669,0.106669 0.0589094,0 0.106669,-0.0477598 0.106669,-0.106669l0 -1.25611z"/>
  <path class="fil0" d="M4.98547 4.14207c0,-0.0589094 -0.0477598,-0.106669 -0.106669,-0.106669 -0.0589094,0 -0.106669,0.0477598 -0.106669,0.106669l0 1.25611c0,0.0589094 0.0477598,0.106669 0.106669,0.106669 0.0589094,0 0.106669,-0.0477598 0.106669,-0.106669l0 -1.25611z"/>
  <polygon class="fil0" points="3.52,0.853331 3.52,2.68363 3.30666,2.68363 3.30666,0.853331 "/>
  <polygon class="fil0" points="2.94102,2.26374 3.40843,2.63767 3.88606,2.26291 4.01773,2.43041 3.47394,2.85708 3.40778,2.90899 3.34185,2.85624 2.80852,2.42958 "/>
 </g>
 <rect class="fil1" width="6.82666" height="6.82666"/>
</svg>
