<?xml version="1.0" encoding="utf-8"?>
<!-- Generator: Adobe Illustrator 24.0.0, SVG Export Plug-In . SVG Version: 6.00 Build 0)  -->
<svg version="1.1" id="Layer_2" xmlns="http://www.w3.org/2000/svg" xmlns:xlink="http://www.w3.org/1999/xlink" x="0px" y="0px"
	 viewBox="0 0 512 512" enable-background="new 0 0 512 512" xml:space="preserve">
<g>
	<g>
		<g>
			<rect x="10" y="220" fill="#6E83B7" width="492" height="44"/>
		</g>
		<g>
			<polygon fill="#6E83B7" points="440,464 72,464 36,264 476,264 			"/>
		</g>
		<g>
			<polygon fill="#466089" points="471.68,288 476,264 36,264 40.32,288 			"/>
		</g>
		<g>
			<path fill="#FFE352" d="M440.5,457.5l-200-200c-8.56-8.56-8.56-22.44,0-31l0,0c8.56-8.56,22.44-8.56,31,0l200,200
				c8.56,8.56,8.56,22.44,0,31l0,0C462.94,466.06,449.06,466.06,440.5,457.5z"/>
		</g>
		<g>
			<circle fill="#FFB236" cx="256" cy="242" r="10"/>
		</g>
	</g>
	<g>
		<rect x="133" y="48" fill="#FFB0AA" width="200" height="172"/>
	</g>
	<g>
		<rect x="72" y="97" fill="#FFE352" width="122" height="122"/>
	</g>
	<g>
		<polygon fill="#FFB236" points="153,137 133,129 113,137 113,97 153,97 		"/>
	</g>
	<g>
		<polygon fill="#FF7B7B" points="259,100 233,90.095 207,100 207,48 259,48 		"/>
	</g>
	<g>
		<rect x="290" y="132" fill="#80D6FB" width="150" height="88"/>
	</g>
	<g>
		<polygon fill="#46BEE8" points="385,172 365,164 345,172 345,132 385,132 		"/>
	</g>
</g>
</svg>
