<?xml version="1.0" encoding="utf-8"?>
<!-- Generator: Adobe Illustrator 16.0.0, SVG Export Plug-In . SVG Version: 6.00 Build 0)  -->
<!DOCTYPE svg PUBLIC "-//W3C//DTD SVG 1.1//EN" "http://www.w3.org/Graphics/SVG/1.1/DTD/svg11.dtd">
<svg version="1.1" xmlns="http://www.w3.org/2000/svg" xmlns:xlink="http://www.w3.org/1999/xlink" x="0px" y="0px" width="64px"
	 height="64px" viewBox="0 0 64 64" enable-background="new 0 0 64 64" xml:space="preserve">
<g id="_x32_5._wedding_x2C__ring_x2C__love_x2C__valentine_x2C__day_x2C__relationship">
</g>
<g id="_x32_4._phone_x2C__call_x2C__heart_x2C__love_x2C__valentine_x2C__day_x2C__relationship">
</g>
<g id="_x32_3._couple_x2C__people_x2C__heart_x2C__love_x2C__valentine_x2C__day_x2C__relationship">
</g>
<g id="_x32_2._couple_x2C__people_x2C__heart_x2C__love_x2C__valentine_x2C__day_x2C__relationship">
</g>
<g id="_x32_1._couple_x2C__people_x2C__heart_x2C__love_x2C__valentine_x2C__day_x2C__relationship">
</g>
<g id="_x32_0._teddy_x2C__bear_x2C__love_x2C__valentine_x2C__day_x2C__relationship">
</g>
<g id="_x31_9._wedding_x2C__ring_x2C__box_x2C__love_x2C__valentine_x2C__day_x2C__relationship">
</g>
<g id="_x31_8._hand_x2C__heart_x2C__love_x2C__valentine_x2C__day_x2C__relationship">
</g>
<g id="_x31_7._bow_x2C__arrow_x2C__cupid_x2C__love_x2C__valentine_x2C__day_x2C__relationship">
</g>
<g id="_x31_6._bouquet_x2C__flower_x2C__rose_x2C__love_x2C__valentine_x2C__day_x2C__relationship">
</g>
<g id="_x31_5._gift_x2C__box_x2C__love_x2C__valentine_x2C__day_x2C__relationship">
</g>
<g id="_x31_4._chocolate_x2C__love_x2C__valentine_x2C__day_x2C__relationship">
</g>
<g id="_x31_3._chocolate_x2C__candy_x2C__love_x2C__valentine_x2C__day_x2C__relationship">
</g>
<g id="_x31_2._glasses_x2C__pink_x2C__heart_x2C__love_x2C__valentine_x2C__day_x2C__relationship">
</g>
<g id="_x31_1._key_x2C__lock_x2C__heart_x2C__love_x2C__valentine_x2C__day_x2C__relationship">
</g>
<g id="_x31_0._contact_x2C__marriage_x2C__pen_x2C__love_x2C__valentine_x2C__day_x2C__relationship">
</g>
<g id="_x39_._calendar_x2C__heart_x2C__love_x2C__valentine_x2C__day_x2C__relationship">
</g>
<g id="_x38_._talk_x2C__people_x2C__heart_x2C__love_x2C__valentine_x2C__day_x2C__relationship">
</g>
<g id="_x37_._valentine_x2C__pen_x2C__heart_x2C__love_x2C__day_x2C__relationship">
</g>
<g id="_x36_._letter_x2C__envelope_x2C__love_x2C__valentine_x2C__day_x2C__relationship">
</g>
<g id="_x35_._purchase_x2C__package_x2C__gift_x2C__love_x2C__valentine_x2C__day_x2C__relationship">
</g>
<g id="_x34_._location_x2C__map_x2C__heart_x2C__love_x2C__valentine_x2C__day_x2C__relationship">
</g>
<g id="_x33_._heart_x2C__wing_x2C__love_x2C__valentine_x2C__day_x2C__relationship">
</g>
<g id="_x32_._heart_x2C__fire_x2C__love_x2C__valentine_x2C__day_x2C__relationship">
	<g>
		<path fill="#F6BB42" d="M50.77,24.85l2.199,6.26c-0.629-1.469-38.08-5.159-39.189-4.049c-0.939,0.939-1.71,2-2.3,3.119l1.5-5.109
			C17.869,8.99,32.5,0.5,32.5,0.5s-1.031,4.97,2,7.999c3.029,3.029,7,1.001,7,1.001S47.67,15.67,50.77,24.85z"/>
		<path fill="#FFCE54" d="M39.102,20.633c0,0,2.43,3.139,2.68,7.719c-2.84,0.291-5.6,1.531-7.779,3.711
			c-3.921-3.93-9.74-4.791-14.49-2.6c0,0,0-8.297,9.397-16.25C29.389,15.063,33.226,21.916,39.102,20.633z"/>
		<path fill="#ED5564" d="M39.779,23.35c3.73-0.39,7.59,0.851,10.439,3.711c1.201,1.199,2.121,2.58,2.75,4.049l0.561,1.611
			l0.02,0.059c1.17,4.311,0.061,9.121-3.33,12.5L32,63.5L13.779,45.279C9.689,41.2,8.92,35.061,11.469,30.2l0.011-0.021
			c0.59-1.119,1.36-2.18,2.3-3.119c1.109-1.11,2.38-1.98,3.73-2.601c4.75-2.19,10.569-1.33,14.49,2.601
			C34.18,24.88,36.939,23.641,39.779,23.35z"/>
	</g>
</g>
<g id="_x31_._heart_x2C__arrow_x2C__love_x2C__valentine_x2C__day_x2C__relationship">
</g>
</svg>
