<svg xmlns="http://www.w3.org/2000/svg" viewBox="0 0 64 64"><g id="_03-tree" data-name="03-tree"><path d="M42,55c0,.38,0,.75-.01,1.12v.03C41.72,57.74,37.36,59,32,59s-9.72-1.26-9.99-2.85v-.04C22,55.74,22,55.37,22,55a8.946,8.946,0,0,1,.41-2.61C24.35,54.13,26.84,55,32,55s7.65-.87,9.59-2.61A8.946,8.946,0,0,1,42,55Z" style="fill:#a56645"/><path d="M41.99,56.15C41.94,59.73,41.33,63,35,63H29c-6.32,0-6.93-3.27-6.99-6.85C22.28,57.74,26.64,59,32,59S41.72,57.74,41.99,56.15Z" style="fill:#db885b"/><path d="M38.95,47.33a17.5,17.5,0,0,1,2.64,5.06C39.65,54.13,37.16,55,32,55s-7.65-.87-9.59-2.61a17.5,17.5,0,0,1,2.64-5.06C25.42,48.83,28.39,50,32,50S38.58,48.83,38.95,47.33Z" style="fill:#db885b"/><path d="M29,34a12.257,12.257,0,0,0,8,11h.56a7.946,7.946,0,0,0,1.1,1.94c.09.13.19.26.29.39C38.58,48.83,35.61,50,32,50s-6.58-1.17-6.95-2.67c.1-.13.2-.26.29-.39A8.028,8.028,0,0,0,27,42.07V37.51a6.5,6.5,0,0,0,1.92-3.52Z" style="fill:#f2c373"/><path d="M14.05,25.93a10.264,10.264,0,0,0,4.96,2.01L19,28a8.712,8.712,0,0,0-3.54,3.01A36.935,36.935,0,0,0,9,32c0-4,5-6,5-6Z" style="fill:#003b24"/><path d="M20,28a20.888,20.888,0,0,0,6.27-.65C21.35,30.03,15,40,15,40c-.55,0-1-1.79-1-4a8.588,8.588,0,0,1,5-8l.01-.06A7.977,7.977,0,0,0,20,28Z" style="fill:#004a2d"/><path d="M29,32.51a20.707,20.707,0,0,0,7.08,3.22L36,36a51.043,51.043,0,0,1,1,9,12.257,12.257,0,0,1-8-11l-.08-.01A6.2,6.2,0,0,0,29,33Z" style="fill:#004a2d"/><path d="M42.97,37.44A9.331,9.331,0,0,1,42,37a41.263,41.263,0,0,0,1-9,68.169,68.169,0,0,1,8,10H46A8.162,8.162,0,0,1,42.97,37.44Z" style="fill:#004a2d"/><path d="M46,16v.01c-.32-.01-.66-.01-1-.01a13.016,13.016,0,0,0-4,.57c0-.19,0-.38-.01-.57H41c1-4,9-10,9-10S49,15,46,16Z" style="fill:#004a2d"/><path d="M30,15v.64l-1.04-.76a22.721,22.721,0,0,0-3.94-7.21C25.16,6.29,25.87,1,29,1,29,1,30,10,30,15Z" style="fill:#004a2d"/><path d="M15,40s6.35-9.97,11.27-12.65a2.35,2.35,0,0,0,.72-.34L27,27l.09.01A19.5,19.5,0,0,0,27,29a4.551,4.551,0,0,0,2,3.51V33a6.2,6.2,0,0,1-.08.99A6.5,6.5,0,0,1,27,37.51l-.11.11A8.917,8.917,0,0,1,20.69,40Z" style="fill:#00613b"/><path d="M42,37a9.331,9.331,0,0,0,.97.44C42.56,41.29,37,45,37,45a51.043,51.043,0,0,0-1-9l.08-.27A47.048,47.048,0,0,0,42,37Z" style="fill:#00613b"/><path d="M52,34c0,2.21-.45,4-1,4a68.169,68.169,0,0,0-8-10,4.292,4.292,0,0,0-.46-2.01H43c.32.01.65.01,1,.01a7.977,7.977,0,0,0,.99-.06L45,26S52,28,52,34Z" style="fill:#00613b"/><path d="M33.93,7.72A23.059,23.059,0,0,0,30,15c0-5-1-14-1-14C32.17,1,33.63,6.42,33.93,7.72Z" style="fill:#00613b"/><path d="M50,6s-8,6-9,10h-.01c-.01-1.9-.07-3.56-.16-4.99L41,11S42,6,50,6Z" style="fill:#00613b"/><path d="M25.12,13.82C25,12.74,25,12,25,12l3.96,2.88,1.04.76,3.01,2.18L36,20l.18.12A7.843,7.843,0,0,0,35,23H29a4.988,4.988,0,0,0-1.38-2.27l.06-.05L27,20A14.493,14.493,0,0,1,25.12,13.82Z" style="fill:#00c477"/><path d="M27.88,23.95a7.647,7.647,0,0,0-.79,3.06L27,27l-.01.01a4.681,4.681,0,0,0-.72.34A20.888,20.888,0,0,1,20,28a7.977,7.977,0,0,1-.99-.06,10.264,10.264,0,0,1-4.96-2.01A18.428,18.428,0,0,1,9,20,56.891,56.891,0,0,1,27.88,23.95Z" style="fill:#008f57"/><path d="M27,20l.68.68-.06.05c-1.14-1.14-3.19-2.36-6.84-2.65v-.01l.01-.08C18.68,17.74,17,13.67,17,11c0-6,2-7,2-7a38.3,38.3,0,0,1,6.12,9.82A14.493,14.493,0,0,0,27,20Z" style="fill:#008f57"/><path d="M40,4s-6.86,7.84-6.99,13.82L30,15.64V15a23.059,23.059,0,0,1,3.93-7.28A9.89,9.89,0,0,1,40,4Z" style="fill:#008f57"/><path d="M27.88,23.95A56.891,56.891,0,0,0,9,20s2-2,10-2c.63,0,1.22.02,1.78.07v.01c3.65.29,5.7,1.51,6.84,2.65A4.988,4.988,0,0,1,29,23S28.42,23,27.88,23.95Z" style="fill:#00c477"/><path d="M25.02,7.67a22.721,22.721,0,0,1,3.94,7.21L25,12s0,.74.12,1.82A38.3,38.3,0,0,0,19,4,9.823,9.823,0,0,1,25.02,7.67Z" style="fill:#00c477"/><path d="M33.01,17.82C33.14,11.84,40,4,40,4a42.778,42.778,0,0,1,.83,7.01c.09,1.43.15,3.09.16,4.99.01.19.01.38.01.57a8.609,8.609,0,0,0-4.82,3.55L36,20Z" style="fill:#00c477"/><path d="M27.88,23.95C28.42,23,29,23,29,23h4c5,1,9,14,9,14a47.048,47.048,0,0,1-5.92-1.27A20.707,20.707,0,0,1,29,32.51,4.551,4.551,0,0,1,27,29a19.5,19.5,0,0,1,.09-1.99A7.647,7.647,0,0,1,27.88,23.95Z" style="fill:#009e60"/><path d="M42,37s-4-13-9-14h2a17.017,17.017,0,0,1,1.99.11c1.88.23,4.49.89,5.55,2.88A4.292,4.292,0,0,1,43,28,41.263,41.263,0,0,1,42,37Z" style="fill:#00c477"/><path d="M35,23a7.843,7.843,0,0,1,1.18-2.88A8.609,8.609,0,0,1,41,16.57,13.016,13.016,0,0,1,45,16c.34,0,.68,0,1,.01,7.17.16,9,1.99,9,1.99a41.119,41.119,0,0,0-18,5l-.01.11A17.017,17.017,0,0,0,35,23Z" style="fill:#00c477"/><path d="M55,18s-3.62,7.25-10.01,7.94A7.977,7.977,0,0,1,44,26c-.35,0-.68,0-1-.01h-.46c-1.06-1.99-3.67-2.65-5.55-2.88L37,23A41.119,41.119,0,0,1,55,18Z" style="fill:#009e60"/><path d="M18.7,34.8c2.216-2.857,5.076-6.088,7.57-7.446A20.888,20.888,0,0,1,20,28a7.977,7.977,0,0,1-.99-.06L19,28a6.322,6.322,0,0,0-.622.318A9.38,9.38,0,0,0,18,31,7.626,7.626,0,0,0,18.7,34.8Z" style="fill:#003b24"/><path d="M29,33v-.49A4.551,4.551,0,0,1,27,29a19.5,19.5,0,0,1,.09-1.99L27,27l-.01.01a2.35,2.35,0,0,1-.72.34c-2.494,1.358-5.354,4.589-7.57,7.446a.431.431,0,0,0,.3.2h5.69a9.335,9.335,0,0,0,4.225-.99l.005-.02A6.2,6.2,0,0,0,29,33Z" style="fill:#004a2d"/><path d="M37.063,49.07A32.132,32.132,0,0,0,40.5,49.8,20.815,20.815,0,0,0,38.95,47.33,3.053,3.053,0,0,1,37.063,49.07Z" style="fill:#a56645"/><path d="M32,59c.207,0,.41-.005.614-.009C28.855,58.735,26,57.827,26,55c0-.211.027-.427.04-.641a8.812,8.812,0,0,1-3.63-1.969A8.946,8.946,0,0,0,22,55c0,.37,0,.74.01,1.11v.04C22.28,57.74,26.64,59,32,59Z" style="fill:#92563a"/><path d="M32.614,58.991c-.2,0-.407.009-.614.009-5.36,0-9.72-1.26-9.99-2.85C22.07,59.73,22.68,63,29,63h6c4.567,0,6.15-1.7,6.7-4C38.705,59.013,35.411,59.182,32.614,58.991Z" style="fill:#845335"/><path d="M27.312,49.228c-1.241-.48-2.077-1.148-2.262-1.9a17.5,17.5,0,0,0-2.64,5.06,8.812,8.812,0,0,0,3.63,1.969A17.209,17.209,0,0,1,27.312,49.228Z" style="fill:#a56645"/><path d="M27.312,49.228a31.606,31.606,0,0,1,1.706-3.586A1,1,0,0,1,30.7,45.56c1.282,1.758,3.942,2.848,6.361,3.51a3.053,3.053,0,0,0,1.887-1.74c-.1-.13-.2-.26-.29-.39A7.946,7.946,0,0,1,37.56,45H37a12.257,12.257,0,0,1-8-11l-.08-.01A6.5,6.5,0,0,1,27,37.51v4.56a8.028,8.028,0,0,1-1.66,4.87c-.09.13-.19.26-.29.39C25.235,48.08,26.071,48.748,27.312,49.228Z" style="fill:#a17b4b"/><path d="M28.123,23.59a2.877,2.877,0,0,0-.243.36,7.647,7.647,0,0,0-.79,3.06A19.5,19.5,0,0,0,27,29a4.551,4.551,0,0,0,2,3.51,20.707,20.707,0,0,0,7.08,3.22A47.048,47.048,0,0,0,42,37a54.043,54.043,0,0,0-1.989-5.241C30.755,30.579,28.592,25.36,28.123,23.59Z" style="fill:#008551"/><path d="M40.011,31.759A54.043,54.043,0,0,1,42,37a38.412,38.412,0,0,0,.8-5.023C41.805,31.944,40.877,31.869,40.011,31.759Z" style="fill:#009e60"/><path d="M41.64,20.839a7.952,7.952,0,0,1-1.582-3.913,8.453,8.453,0,0,0-3.878,3.2A7.843,7.843,0,0,0,35,23.01a17.017,17.017,0,0,1,1.99.11l.01-.11A38.044,38.044,0,0,1,41.64,20.839Z" style="fill:#008f57"/><path d="M48,24a7.979,7.979,0,0,1-6.36-3.161A38.044,38.044,0,0,0,37,23.01l-.01.11c1.88.23,4.49.89,5.55,2.88H43c.32.01.65.01,1,.01a7.977,7.977,0,0,0,.99-.06A10.285,10.285,0,0,0,49.857,24Z" style="fill:#007145"/><path d="M46.415,34.677a1,1,0,0,1-1.17-1.146l.439-2.637C44.825,29.884,43.917,28.888,43,28a41.263,41.263,0,0,1-1,9,9.331,9.331,0,0,0,.97.44A8.162,8.162,0,0,0,46,38h5s-.95-1.463-2.394-3.414A8.753,8.753,0,0,0,46.415,34.677Z" style="fill:#003b24"/><path d="M46.408,26.549A11.576,11.576,0,0,0,45,26l-.01-.06A7.977,7.977,0,0,1,44,26c-.35,0-.68,0-1-.01h-.46A4.292,4.292,0,0,1,43,28c.917.888,1.825,1.884,2.684,2.894Z" style="fill:#004a2d"/><path d="M51,38c.429,0,.793-1.093.935-2.618a9.979,9.979,0,0,0-3.329-.8C50.05,36.537,51,38,51,38Z" style="fill:#004a2d"/><path d="M33.865,7.8A23.155,23.155,0,0,0,30,15v.64l3.01,2.18a13.452,13.452,0,0,1,1.236-4.879A19.7,19.7,0,0,1,33.865,7.8Z" style="fill:#004a2d"/><path d="M40.966,14.346c-3.4.925-2.518,3.286-4.966,1.654a4.953,4.953,0,0,1-1.754-3.059A13.452,13.452,0,0,0,33.01,17.82L36,20l.18.12A8.609,8.609,0,0,1,41,16.57c0-.19,0-.38-.01-.57C40.987,15.424,40.978,14.878,40.966,14.346Z" style="fill:#00613b"/><path d="M12.86,24.963a14.512,14.512,0,0,0,1.19.967,10.264,10.264,0,0,0,4.96,2.01A7.977,7.977,0,0,0,20,28a20.888,20.888,0,0,0,6.27-.65,4.681,4.681,0,0,1,.72-.34L27,27l.09.01a7.647,7.647,0,0,1,.79-3.06,55.019,55.019,0,0,0-5.839-1.937A17.112,17.112,0,0,1,12.86,24.963Z" style="fill:#00613b"/><path d="M27.62,20.73a7.932,7.932,0,0,0-2.42-1.615,15.429,15.429,0,0,1-3.159,2.9A55.019,55.019,0,0,1,27.88,23.95C28.42,23,29,23,29,23A4.988,4.988,0,0,0,27.62,20.73Z" style="fill:#008f57"/><path d="M34.484,18.894a5.05,5.05,0,0,0-1.218,1.516,1,1,0,0,1-1.058.52c-3.619-.662-4.827-5.776-5.124-7.414L25,12s0,.74.12,1.82A14.493,14.493,0,0,0,27,20l.68.68-.06.05A4.988,4.988,0,0,1,29,23h6a7.843,7.843,0,0,1,1.18-2.88L36,20Z" style="fill:#00613b"/><path d="M44.244,12.607a.983.983,0,0,1-1.018-.334A10.36,10.36,0,0,0,41,16h-.01c.01.19.01.38.01.57A13.016,13.016,0,0,1,45,16c.34,0,.68,0,1,.01V16c1.179-.393,2.046-2.025,2.668-3.858A14.069,14.069,0,0,0,44.244,12.607Z" style="fill:#003b24"/><path d="M43.226,12.273A1,1,0,0,1,43,11.638V8.049A5.691,5.691,0,0,0,41,11l-.17.01c.09,1.43.15,3.09.16,4.99H41A10.36,10.36,0,0,1,43.226,12.273Z" style="fill:#004a2d"/><path d="M29.113,8.643a14.894,14.894,0,0,0-3.679-3.365A17.663,17.663,0,0,0,25.02,7.67a22.721,22.721,0,0,1,3.94,7.21l1.04.76V15c0-1.7-.116-3.851-.268-5.961A.963.963,0,0,1,29.113,8.643Z" style="fill:#002617"/><path d="M30.837,8.459a1,1,0,0,1-1.105.58C29.884,11.149,30,13.3,30,15a23.059,23.059,0,0,1,3.93-7.28,18.637,18.637,0,0,0-.714-2.332A6.94,6.94,0,0,0,30.837,8.459Z" style="fill:#003b24"/><path d="M25.12,13.82A23.436,23.436,0,0,0,24,11.342,1.474,1.474,0,0,1,23,12a8.849,8.849,0,0,1-5.992-1.374c0,.126-.008.242-.008.374,0,2.67,1.68,6.74,3.79,6.99l-.01.08v.01c3.65.29,5.7,1.51,6.84,2.65l.06-.05L27,20A14.493,14.493,0,0,1,25.12,13.82Z" style="fill:#004a2d"/><path d="M25.12,13.82C25,12.74,25,12,25,12l3.96,2.88a22.721,22.721,0,0,0-3.94-7.21c-.014-.017-.03-.032-.044-.049A7.946,7.946,0,0,1,24,11.342,23.436,23.436,0,0,1,25.12,13.82Z" style="fill:#008f57"/><path d="M33.688,38.5a14.6,14.6,0,0,0,2.922,1.28c-.144-1.148-.339-2.423-.61-3.777l.08-.27A20.707,20.707,0,0,1,29,32.51V33a6.2,6.2,0,0,1-.08.99L29,34a12.679,12.679,0,0,0,3.7,8.315,25.045,25.045,0,0,1-.516-2.854A1,1,0,0,1,33.688,38.5Z" style="fill:#003b24"/><path d="M42,37a47.048,47.048,0,0,1-5.92-1.27L36,36c.271,1.354.466,2.629.61,3.777a32.174,32.174,0,0,0,4.784,1.134A7.255,7.255,0,0,0,42.97,37.44,9.331,9.331,0,0,1,42,37Z" style="fill:#004a2d"/><path d="M43.123,17.561a.573.573,0,0,0,.171.34.733.733,0,0,0,.5.1,24.857,24.857,0,0,0,4.589-.5c.262-.062.566-.176.614-.422a.462.462,0,0,0-.154-.4,1.641,1.641,0,0,0-.766-.367,9.794,9.794,0,0,0-3.286-.284,4.3,4.3,0,0,0-1.59.268C42.853,16.522,43.048,17.224,43.123,17.561Z" style="fill:#00e38a"/><path d="M39.893,11.1l-.109-1.331c-.041-.5.041-1.476-.69-1.708-1.152-.365-1.647.95-1.915,1.431a14.965,14.965,0,0,0-.919,2.116,2.329,2.329,0,0,0-.215,1.411A1.481,1.481,0,0,0,37.392,14a4.432,4.432,0,0,0,1.629-.357c.47-.146.819-.3.938-.748a2.08,2.08,0,0,0,.022-.7Z" style="fill:#00e38a"/><path d="M38.183,24a1.431,1.431,0,0,0-1.005.268.639.639,0,0,0-.167.35c-.089.563.384,1.071.823,1.515a10.113,10.113,0,0,1,1.671,2.037c.19.335.337.687.553,1.012s.524.822,1.059.818a2.565,2.565,0,0,0,1.546-1.064,2,2,0,0,0,.316-.9,3.2,3.2,0,0,0-.814-2.482A5.182,5.182,0,0,0,38.183,24Z" style="fill:#00e38a"/><path d="M19.043,18.012a13.008,13.008,0,0,0-3.619.266c-.232.064-.5.214-.4.375a.448.448,0,0,0,.206.137A19.01,19.01,0,0,0,21.839,20a2,2,0,0,0,.621-.042A.71.71,0,0,0,23,19.328C23.065,18.024,20.253,18.037,19.043,18.012Z" style="fill:#00e38a"/><path d="M49.151,19.656c-.3.1-.588.2-.88.307a2.175,2.175,0,0,0-1,.593,1.086,1.086,0,0,0-.238.982,1.258,1.258,0,0,0,.323.5,3.491,3.491,0,0,0,.874.61,2.1,2.1,0,0,0,1.381.321,2.3,2.3,0,0,0,.587-.24,8.252,8.252,0,0,0,1.771-1.149c.519-.475,1.345-1.523.9-2.255-.306-.5-.995-.3-1.478-.227a12.588,12.588,0,0,0-1.735.395C49.49,19.547,49.32,19.6,49.151,19.656Z" style="fill:#00c477"/><path d="M37.035,28.161a2.669,2.669,0,0,0-.2-1.005c-.13-.324-.349-.587-.5-.895a10.216,10.216,0,0,0-1.166-1.746,5.19,5.19,0,0,0-.514-.536,2.6,2.6,0,0,0-.627-.451,4.319,4.319,0,0,0-.76-.27,10.068,10.068,0,0,0-2.93-.252,1.406,1.406,0,0,0-1.147.394.968.968,0,0,0-.081.9,2.456,2.456,0,0,0,.53.773,14.133,14.133,0,0,0,6.114,3.814,1.083,1.083,0,0,0,1.047-.047A.907.907,0,0,0,37.035,28.161Z" style="fill:#00c477"/><path d="M48.1,28.012c-.439-.1-.606.384-.7.806-.113.481-.267.943-.364,1.432a.856.856,0,0,0-.017.366.641.641,0,0,0,.19.291c.381.376.838.616,1.231.97.693.623,1.179,1.59,1.955,2.04.143.083.332.136.442,0a.576.576,0,0,0,.09-.259,3.8,3.8,0,0,0,.023-1.393,4.027,4.027,0,0,0-.3-.842,9.708,9.708,0,0,0-1.972-3.04A1.292,1.292,0,0,0,48.1,28.012Z" style="fill:#007145"/></g></svg>