<?xml version="1.0" standalone="no"?>
<!DOCTYPE svg PUBLIC "-//W3C//DTD SVG 20010904//EN"
 "http://www.w3.org/TR/2001/REC-SVG-20010904/DTD/svg10.dtd">
<svg version="1.0" xmlns="http://www.w3.org/2000/svg"
 width="700.000000pt" height="700.000000pt" viewBox="0 0 700.000000 700.000000"
 preserveAspectRatio="xMidYMid meet">
<metadata>
Created by potrace 1.14, written by Peter Selinger 2001-2017
</metadata>
<g transform="translate(0.000000,700.000000) scale(0.100000,-0.100000)"
fill="#000000" stroke="none">
<path d="M3077 6874 c-110 -34 -226 -199 -283 -403 -22 -82 -54 -241 -54 -275
0 -28 -3 -26 -77 49 -169 172 -377 286 -567 310 -71 9 -163 -162 -207 -387
-18 -94 -24 -179 -23 -353 0 -153 3 -180 27 -268 66 -242 188 -434 312 -493
l50 -24 -205 0 c-113 0 -216 -2 -230 -4 -14 -2 -65 -7 -114 -11 -50 -4 -97 -8
-106 -10 -10 -2 -41 -6 -70 -10 -29 -4 -60 -8 -69 -10 -135 -28 -183 -40 -249
-61 -82 -27 -165 -64 -170 -76 -2 -5 -9 -8 -17 -8 -7 0 -18 -7 -25 -15 -11
-13 -9 -23 10 -58 37 -66 118 -185 179 -262 64 -80 248 -268 303 -310 21 -15
38 -30 38 -34 0 -4 -19 -16 -42 -26 -231 -101 -430 -308 -487 -505 -10 -34
-21 -130 -15 -130 2 0 41 9 86 19 92 22 292 56 378 66 30 3 71 8 90 10 19 2
61 7 92 10 l58 6 -32 -58 c-17 -32 -34 -62 -38 -68 -17 -22 -69 -195 -79 -260
-21 -150 2 -437 43 -537 29 -67 11 -65 431 -63 308 2 394 6 455 19 166 36 310
107 443 217 l39 32 -5 -324 c-4 -298 -6 -330 -26 -399 -33 -110 -83 -208 -171
-329 -139 -194 -230 -363 -288 -536 -47 -141 -59 -236 -56 -424 6 -327 47
-466 173 -592 89 -89 186 -133 356 -164 64 -11 181 -14 600 -11 453 2 528 5
585 20 157 41 236 83 317 169 83 88 129 209 148 395 8 74 8 376 1 412 -3 14
-11 50 -17 80 -37 183 -178 465 -340 679 -28 36 -66 99 -85 139 -33 66 -38 72
-66 72 -30 0 -30 1 28 41 32 23 61 44 64 48 3 3 28 24 55 46 82 65 246 234
312 323 73 97 125 200 149 295 13 55 20 67 33 62 9 -4 50 -16 91 -27 67 -18
112 -21 422 -24 324 -3 348 -2 370 15 23 19 53 89 63 149 3 17 8 47 11 65 10
59 12 262 3 322 -41 274 -222 499 -535 666 -54 29 -125 63 -159 75 -58 21 -59
22 -30 28 337 72 572 221 821 517 118 140 240 328 231 353 -7 18 -129 79 -207
105 -66 21 -207 55 -270 65 -112 18 -176 26 -255 32 -50 4 -101 8 -115 9 -14
2 -45 3 -69 4 l-44 1 40 29 c64 46 112 109 163 216 79 162 148 408 195 690 26
158 25 164 -23 160 -15 -2 -67 -6 -115 -9 -48 -4 -93 -9 -100 -11 -7 -2 -30
-7 -52 -10 -194 -28 -424 -145 -535 -271 -44 -51 -96 -133 -116 -186 -27 -70
-41 -77 -41 -21 0 83 -14 246 -33 388 -17 128 -20 151 -24 170 -2 11 -9 53
-16 93 l-13 73 -31 -5 c-180 -30 -409 -158 -553 -310 l-80 -84 -23 82 c-62
215 -158 408 -259 519 -98 109 -228 150 -354 111z"/>
</g>
</svg>
